<svg xmlns="http://www.w3.org/2000/svg" viewBox="0 0 512 512" style="height: 512px; width: 512px;"><defs><filter id="shadow-2" height="300%" width="300%" x="-100%" y="-100%"><feFlood flood-color="rgba(35, 64, 98, 1)" result="flood"></feFlood><feComposite in="flood" in2="SourceGraphic" operator="out" result="composite"></feComposite><feGaussianBlur in="composite" stdDeviation="15" result="blur"></feGaussianBlur><feOffset dx="0" dy="0" result="offset"></feOffset><feComposite in="offset" in2="SourceGraphic" operator="atop"></feComposite></filter><filter id="shadow-3" height="300%" width="300%" x="-100%" y="-100%"><feFlood flood-color="rgba(1, 8, 17, 1)" result="flood"></feFlood><feComposite in="flood" in2="SourceGraphic" operator="out" result="composite"></feComposite><feGaussianBlur in="composite" stdDeviation="15" result="blur"></feGaussianBlur><feOffset dx="0" dy="0" result="offset"></feOffset><feComposite in="offset" in2="SourceGraphic" operator="atop"></feComposite></filter></defs><g class="" transform="translate(0,0)" style=""><g><path d="M247.79 18.734C137.967 17.596 19.874 96.94 19.73 244.53L41.133 193.135C31.648 265.415 33.383 340.371 79.923 395.637L38.2 377.355C77.44 447.129 164.533 468.331 239.055 469.865C124.11 429.9 67.87 342.277 63.912 246.492C57.19 34.712 324.57 28.798 404.692 170.722C401.275 151.23 396.069 132.296 389.074 114.612C466.48 203.767 448.367 329.487 367.784 367.648C343.534 371.598 318.854 379.708 306.83 386.648C248.282 420.45 300.56 513.184 360.055 478.836C369.495 473.386 383.459 461.533 396.549 447.484C460.909 387.964 494.649 329.244 489.657 258.544C483.137 287.644 470.482 316.448 454.034 343.227C517.192 196.405 461.99 79.337 309.196 41.873C321.293 47.708 332.699 55.503 343.069 65.233C285.654 41.481 211.946 42.613 156.185 68.738C184.251 42.538 220.961 25.008 258.385 19.096C254.865 18.891 251.331 18.771 247.788 18.734Z" class="selected" fill="#4f9bf4" fill-opacity="1" filter="url(#shadow-2)"></path><path d="M228.05 178.936L208.207 279.502C205.249 283.312 202.567 286.354 199.174 289.442L173.486 240.346L150.781 252.276L182.151 313.221C186.631 324.695 192.171 333.901 197.313 341.745C225.376 384.548 261.86 376.997 292.616 351.3L379.896 302.848L367.186 280.35L301.05 317.29C299.533 314.136 297.784 310.738 295.994 307.78L363.812 242.82L346.272 224.125L279.802 287.887C277.446 285.569 275.564 283.36 273.037 281.347L318.121 203.262L295.388 190.135L249.524 268.432C245.734 267.122 241.804 266.232 237.929 265.687L253.585 183.791L228.052 178.937Z" class="" fill="#3368a6" fill-opacity="1" filter="url(#shadow-3)"></path></g></g></svg>